<?xml version="1.0"?>
<svg xmlns="http://www.w3.org/2000/svg" xmlns:xlink="http://www.w3.org/1999/xlink" xmlns:svgjs="http://svgjs.com/svgjs" version="1.1" width="512" height="512" x="0" y="0" viewBox="0 0 512 512" style="enable-background:new 0 0 512 512" xml:space="preserve" class=""><g><g xmlns="http://www.w3.org/2000/svg"><path d="m294.677 58.1c-.882-2.715-3.229-4.694-6.054-5.104l-17.895-2.6-8.002-16.215c-1.264-2.56-3.871-4.181-6.726-4.181s-5.462 1.621-6.726 4.181l-8.002 16.215-17.895 2.6c-2.825.41-5.172 2.389-6.054 5.104s-.146 5.696 1.898 7.688l12.948 12.622-3.057 17.822c-.482 2.813.674 5.657 2.984 7.335 2.309 1.677 5.371 1.899 7.898.571l16.006-8.414 16.005 8.415c1.098.577 2.296.861 3.489.861 1.555 0 3.103-.483 4.409-1.432 2.31-1.678 3.466-4.522 2.984-7.335l-3.057-17.822 12.948-12.622c2.045-1.993 2.781-4.974 1.899-7.689zm-28.14 12.321c-1.768 1.723-2.575 4.206-2.157 6.639l1.154 6.73-6.044-3.178c-1.093-.574-2.292-.861-3.49-.861s-2.397.287-3.49.861l-6.044 3.178 1.154-6.73c.417-2.433-.389-4.916-2.157-6.639l-4.89-4.767 6.758-.982c2.443-.355 4.555-1.889 5.647-4.103l3.022-6.122 3.022 6.124c1.092 2.213 3.204 3.748 5.647 4.103l6.758.982z" fill="#0b0b85" data-original="#000000" style="" class=""/><path d="m311.515 112.038c1.161 2.608 3.702 4.331 6.555 4.444l18.068.715 9.654 15.29c1.383 2.191 3.786 3.497 6.34 3.496.26 0 .522-.014.786-.041 2.839-.298 5.263-2.183 6.251-4.861l6.264-16.962 17.525-4.457c2.767-.704 4.894-2.917 5.487-5.709.594-2.792-.45-5.68-2.691-7.448l-14.197-11.199 1.177-18.044c.186-2.849-1.262-5.556-3.734-6.983-2.474-1.428-5.541-1.328-7.915.258l-15.038 10.042-16.797-6.695c-2.651-1.057-5.673-.517-7.795 1.393-2.122 1.911-2.975 4.859-2.201 7.607l4.903 17.405-11.558 13.906c-1.825 2.194-2.245 5.235-1.084 7.843zm28.15-22.022-1.852-6.573 6.343 2.528c2.292.915 4.889.641 6.942-.729l5.679-3.792-.444 6.814c-.161 2.463.901 4.848 2.839 6.376l5.361 4.229-6.618 1.683c-2.392.608-4.332 2.355-5.187 4.67l-2.366 6.406-3.646-5.774c-1.318-2.087-3.579-3.393-6.045-3.49l-6.823-.27 4.365-5.251c1.578-1.898 2.12-4.451 1.452-6.827z" fill="#0b0b85" data-original="#000000" style="" class=""/><path d="m444.738 139.266-18.044 1.177-11.199-14.197c-1.768-2.242-4.655-3.285-7.448-2.691-2.792.593-5.005 2.721-5.709 5.487l-4.457 17.525-16.962 6.264c-2.678.989-4.563 3.413-4.861 6.251-.298 2.839 1.041 5.602 3.455 7.126l15.29 9.654.715 18.068c.113 2.853 1.835 5.394 4.444 6.555.978.436 2.017.648 3.049.648 1.72 0 3.423-.592 4.795-1.732l13.906-11.558 17.405 4.903c2.749.773 5.697-.08 7.607-2.201 1.91-2.122 2.45-5.144 1.393-7.795l-6.695-16.797 10.042-15.038c1.585-2.375 1.686-5.443.258-7.915-1.427-2.472-4.131-3.922-6.984-3.734zm-18.709 28.578 2.528 6.343-6.573-1.852c-2.376-.668-4.93-.126-6.828 1.452l-5.251 4.365-.27-6.823c-.098-2.466-1.403-4.727-3.49-6.045l-5.774-3.646 6.406-2.366c2.315-.855 4.062-2.795 4.67-5.187l1.683-6.618 4.229 5.361c1.529 1.938 3.913 2.997 6.376 2.839l6.814-.444-3.792 5.679c-1.369 2.053-1.642 4.649-.728 6.942z" fill="#0b0b85" data-original="#000000" style="" class=""/><path d="m459.004 288.623 2.6-17.895 16.215-8.002c2.56-1.264 4.181-3.871 4.181-6.726s-1.621-5.462-4.181-6.726l-16.215-8.002-2.6-17.895c-.41-2.825-2.389-5.172-5.104-6.054-2.715-.883-5.696-.147-7.688 1.898l-12.622 12.948-17.822-3.057c-2.814-.485-5.657.674-7.335 2.984s-1.899 5.371-.571 7.898l8.414 16.006-8.415 16.005c-1.328 2.527-1.107 5.589.571 7.898 1.678 2.31 4.523 3.466 7.335 2.984l17.822-3.057 12.622 12.948c1.435 1.472 3.381 2.266 5.372 2.265.774 0 1.556-.12 2.317-.367 2.715-.882 4.694-3.228 5.104-6.053zm-7.574-29.601c-2.213 1.092-3.748 3.204-4.103 5.647l-.982 6.758-4.767-4.89c-1.424-1.461-3.366-2.265-5.37-2.265-.421 0-.846.036-1.269.108l-6.73 1.154 3.178-6.044c1.148-2.185 1.148-4.795 0-6.98l-3.178-6.044 6.73 1.154c2.433.416 4.915-.388 6.639-2.157l4.767-4.89.982 6.758c.355 2.443 1.889 4.555 4.103 5.647l6.124 3.022z" fill="#0b0b85" data-original="#000000" style="" class=""/><path d="m446.725 321.455c-1.911-2.122-4.859-2.973-7.607-2.201l-17.405 4.903-13.906-11.558c-2.195-1.825-5.238-2.245-7.844-1.084-2.608 1.161-4.331 3.702-4.444 6.555l-.715 18.068-15.29 9.654c-2.414 1.524-3.753 4.287-3.455 7.126s2.183 5.263 4.861 6.251l16.962 6.264 4.457 17.525c.704 2.767 2.917 4.894 5.709 5.487.52.11 1.042.165 1.56.165 2.268 0 4.449-1.031 5.888-2.855l11.199-14.197 18.044 1.177c2.857.188 5.556-1.262 6.983-3.734 1.428-2.472 1.328-5.541-.258-7.915l-10.042-15.038 6.695-16.797c1.058-2.653.518-5.675-1.392-7.796zm-22.989 34.878c-2.459-.158-4.848.901-6.376 2.839l-4.229 5.361-1.683-6.618c-.608-2.392-2.355-4.332-4.67-5.187l-6.406-2.366 5.774-3.646c2.087-1.318 3.393-3.579 3.49-6.045l.27-6.823 5.251 4.365c1.898 1.578 4.451 2.121 6.828 1.452l6.573-1.852-2.528 6.343c-.914 2.293-.641 4.889.729 6.942l3.792 5.679z" fill="#0b0b85" data-original="#000000" style="" class=""/><path d="m312.599 407.807 11.558 13.906-4.903 17.405c-.774 2.748.079 5.697 2.201 7.607 2.122 1.909 5.144 2.45 7.795 1.393l16.797-6.695 15.038 10.042c1.258.84 2.71 1.263 4.166 1.263 1.292 0 2.587-.333 3.75-1.005 2.472-1.427 3.92-4.135 3.734-6.983l-1.177-18.044 14.197-11.199c2.241-1.768 3.285-4.655 2.691-7.448-.593-2.792-2.721-5.005-5.487-5.709l-17.525-4.457-6.264-16.962c-.989-2.678-3.413-4.563-6.251-4.861-2.85-.295-5.602 1.042-7.126 3.455l-9.654 15.29-18.068.715c-2.853.113-5.394 1.835-6.555 4.444-1.162 2.606-.742 5.647 1.083 7.843zm28.072 1.828c2.466-.098 4.727-1.403 6.045-3.49l3.646-5.774 2.366 6.406c.855 2.315 2.795 4.062 5.187 4.67l6.618 1.683-5.361 4.229c-1.938 1.529-3 3.913-2.839 6.376l.444 6.814-5.679-3.792c-1.251-.835-2.703-1.263-4.166-1.263-.938 0-1.88.176-2.776.533l-6.343 2.528 1.852-6.573c.669-2.376.126-4.929-1.452-6.828l-4.365-5.251z" fill="#0b0b85" data-original="#000000" style="" class=""/><path d="m217.323 453.9c.882 2.715 3.229 4.694 6.054 5.104l17.895 2.6 8.002 16.215c1.264 2.56 3.871 4.181 6.726 4.181s5.462-1.621 6.726-4.181l8.002-16.215 17.895-2.6c2.825-.41 5.172-2.389 6.054-5.104s.146-5.696-1.898-7.688l-12.948-12.622 3.057-17.822c.482-2.813-.674-5.657-2.984-7.335-2.309-1.678-5.371-1.899-7.898-.571l-16.006 8.414-16.005-8.415c-2.527-1.328-5.589-1.106-7.898.571-2.31 1.678-3.466 4.522-2.984 7.335l3.057 17.822-12.948 12.622c-2.045 1.993-2.781 4.974-1.899 7.689zm28.14-12.321c1.768-1.723 2.575-4.206 2.157-6.639l-1.154-6.73 6.044 3.178c2.186 1.148 4.795 1.148 6.98 0l6.044-3.178-1.154 6.73c-.417 2.433.389 4.916 2.157 6.639l4.89 4.767-6.758.982c-2.443.355-4.555 1.889-5.647 4.103l-3.022 6.122-3.022-6.124c-1.092-2.213-3.204-3.748-5.647-4.103l-6.758-.982z" fill="#0b0b85" data-original="#000000" style="" class=""/><path d="m200.485 399.962c-1.161-2.608-3.702-4.331-6.555-4.444l-18.068-.715-9.654-15.29c-1.524-2.414-4.278-3.751-7.126-3.455-2.839.298-5.263 2.183-6.251 4.861l-6.264 16.962-17.525 4.457c-2.767.704-4.894 2.917-5.487 5.709-.594 2.792.45 5.68 2.691 7.448l14.197 11.199-1.177 18.044c-.186 2.849 1.262 5.556 3.734 6.983 1.163.671 2.458 1.005 3.75 1.005 1.456 0 2.908-.423 4.166-1.263l15.038-10.042 16.797 6.695c2.652 1.057 5.674.516 7.795-1.393 2.122-1.911 2.975-4.859 2.201-7.607l-4.903-17.405 11.558-13.906c1.824-2.194 2.244-5.235 1.083-7.843zm-28.15 22.022 1.852 6.573-6.343-2.528c-2.293-.915-4.888-.641-6.942.729l-5.679 3.792.444-6.814c.161-2.463-.901-4.848-2.839-6.376l-5.361-4.229 6.618-1.683c2.392-.608 4.332-2.355 5.187-4.67l2.366-6.406 3.646 5.774c1.318 2.087 3.579 3.393 6.045 3.49l6.823.27-4.365 5.251c-1.578 1.898-2.12 4.451-1.452 6.827z" fill="#0b0b85" data-original="#000000" style="" class=""/><path d="m67.262 372.734 18.044-1.177 11.199 14.197c1.439 1.825 3.62 2.855 5.888 2.855.518 0 1.041-.054 1.56-.165 2.792-.593 5.005-2.721 5.709-5.487l4.457-17.525 16.962-6.264c2.678-.989 4.563-3.413 4.861-6.251.298-2.839-1.041-5.602-3.455-7.126l-15.29-9.654-.715-18.068c-.113-2.853-1.835-5.394-4.444-6.555-2.607-1.161-5.649-.742-7.844 1.084l-13.906 11.558-17.405-4.903c-2.749-.772-5.697.079-7.607 2.201s-2.45 5.144-1.393 7.795l6.695 16.797-10.042 15.038c-1.585 2.375-1.686 5.443-.258 7.915s4.134 3.928 6.984 3.735zm18.709-28.578-2.528-6.343 6.573 1.852c2.376.669 4.93.126 6.828-1.452l5.251-4.365.27 6.823c.098 2.466 1.403 4.727 3.49 6.045l5.774 3.646-6.406 2.366c-2.315.855-4.062 2.795-4.67 5.187l-1.683 6.618-4.229-5.361c-1.427-1.81-3.601-2.855-5.887-2.855-.163 0-.326.005-.489.016l-6.814.444 3.792-5.679c1.369-2.053 1.642-4.649.728-6.942z" fill="#0b0b85" data-original="#000000" style="" class=""/><path d="m103.568 232.097c-1.679-2.31-4.525-3.468-7.335-2.984l-17.822 3.057-12.622-12.948c-1.993-2.045-4.972-2.78-7.688-1.898-2.715.882-4.694 3.229-5.104 6.054l-2.6 17.895-16.215 8.002c-2.561 1.263-4.182 3.87-4.182 6.725s1.621 5.462 4.181 6.726l16.215 8.002 2.6 17.895c.41 2.825 2.389 5.172 5.104 6.054.761.247 1.542.367 2.317.367 1.991 0 3.937-.793 5.372-2.265l12.622-12.948 17.822 3.057c2.812.481 5.657-.674 7.335-2.984s1.899-5.371.571-7.898l-8.415-16.006 8.415-16.005c1.328-2.527 1.107-5.589-.571-7.898zm-22.956 27.393 3.178 6.044-6.73-1.154c-2.431-.417-4.915.389-6.639 2.157l-4.767 4.89-.982-6.758c-.355-2.443-1.889-4.555-4.103-5.647l-6.122-3.022 6.124-3.022c2.213-1.092 3.748-3.204 4.103-5.647l.982-6.758 4.767 4.89c1.723 1.769 4.206 2.574 6.639 2.157l6.73-1.154-3.178 6.044c-1.15 2.185-1.15 4.795-.002 6.98z" fill="#0b0b85" data-original="#000000" style="" class=""/><path d="m109.662 129.042c-.704-2.767-2.917-4.894-5.709-5.487-2.794-.593-5.68.449-7.448 2.691l-11.199 14.197-18.044-1.177c-2.854-.186-5.556 1.262-6.983 3.734-1.428 2.472-1.328 5.541.258 7.915l10.042 15.038-6.695 16.797c-1.057 2.652-.517 5.674 1.393 7.795 1.911 2.122 4.858 2.974 7.607 2.201l17.405-4.903 13.906 11.558c1.372 1.141 3.074 1.732 4.795 1.732 1.032 0 2.072-.213 3.049-.648 2.608-1.161 4.331-3.702 4.444-6.555l.715-18.068 15.29-9.654c2.414-1.524 3.753-4.287 3.455-7.126s-2.183-5.263-4.861-6.251l-16.962-6.264zm-3.807 36.242c-2.087 1.318-3.393 3.579-3.49 6.045l-.27 6.823-5.251-4.365c-1.363-1.133-3.064-1.732-4.794-1.732-.679 0-1.363.092-2.033.281l-6.573 1.852 2.528-6.343c.914-2.293.641-4.889-.729-6.942l-3.792-5.679 6.814.444c2.465.164 4.848-.901 6.376-2.839l4.229-5.361 1.683 6.618c.608 2.392 2.355 4.332 4.67 5.187l6.406 2.366z" fill="#0b0b85" data-original="#000000" style="" class=""/><path d="m123.555 103.953c.593 2.792 2.721 5.005 5.487 5.709l17.525 4.457 6.264 16.962c.989 2.678 3.413 4.563 6.251 4.861.263.027.525.041.786.041 2.555 0 4.957-1.306 6.34-3.496l9.654-15.29 18.068-.715c2.853-.113 5.394-1.835 6.555-4.444 1.161-2.608.741-5.649-1.084-7.844l-11.558-13.906 4.903-17.405c.774-2.748-.079-5.697-2.201-7.607s-5.143-2.45-7.795-1.393l-16.797 6.695-15.038-10.042c-2.375-1.585-5.443-1.686-7.915-.258-2.472 1.427-3.92 4.135-3.734 6.983l1.177 18.044-14.197 11.199c-2.241 1.769-3.285 4.656-2.691 7.449zm29.274-9.313c1.938-1.529 3-3.913 2.839-6.376l-.444-6.814 5.679 3.792c2.054 1.371 4.649 1.645 6.942.729l6.343-2.528-1.852 6.573c-.669 2.376-.126 4.929 1.452 6.828l4.365 5.251-6.823.27c-2.466.098-4.727 1.403-6.045 3.49l-3.646 5.774-2.366-6.406c-.855-2.315-2.795-4.062-5.187-4.67l-6.618-1.683z" fill="#0b0b85" data-original="#000000" style="" class=""/><path d="m437.02 74.98c-48.353-48.351-112.64-74.98-181.02-74.98-62.63 0-122.916 22.87-169.754 64.396-3.099 2.748-3.384 7.488-.636 10.587 2.748 3.1 7.488 3.385 10.587.636 44.092-39.09 100.844-60.619 159.803-60.619 132.888 0 241 108.112 241 241s-108.112 241-241 241-241-108.112-241-241c0-58.959 21.529-115.711 60.62-159.803 2.748-3.1 2.463-7.839-.636-10.587-3.1-2.749-7.84-2.463-10.587.636-41.527 46.838-64.397 107.124-64.397 169.754 0 68.38 26.629 132.667 74.98 181.02 48.353 48.351 112.64 74.98 181.02 74.98s132.667-26.629 181.02-74.98c48.351-48.353 74.98-112.64 74.98-181.02s-26.629-132.667-74.98-181.02z" fill="#0b0b85" data-original="#000000" style="" class=""/></g></g></svg>
